<svg width="77" height="62" viewBox="0 0 77 62" fill="none" xmlns="http://www.w3.org/2000/svg">
<g clip-path="url(#clip0_2_1211)">
<path d="M50.0502 21.3125C50.0502 9.54219 38.8491 0 25.0252 0C11.2013 0 0.000223054 9.54219 0.000223054 21.3125C0.000223054 26.1042 1.8795 30.5108 5.01365 34.0758C3.04172 38.0428 0.293786 41.0169 0.250473 41.0605C-0.0021832 41.3275 -0.0707613 41.7235 0.0771028 42.0721C0.228817 42.4191 0.553901 42.625 0.921817 42.625C5.5358 42.625 9.43513 41.2784 12.4405 39.7139C16.1462 41.5473 20.4293 42.625 25.0252 42.625C38.8491 42.625 50.0502 33.0828 50.0502 21.3125ZM72.1396 53.7293C75.1715 50.1207 77.0003 45.6039 77.0003 40.6875C77.0003 28.9172 66.6534 19.375 53.9002 19.375C53.8624 19.375 53.8258 19.38 53.7879 19.3802C53.8401 20.0168 53.9002 20.6586 53.9002 21.3125C53.9002 33.2548 44.3137 43.2547 31.5101 45.834C34.0126 55.1098 42.9638 62 53.9002 62C57.9536 62 61.7591 61.0303 65.0713 59.3384C68.0009 60.7891 71.7185 62 76.0738 62C76.4419 62 76.7668 61.7911 76.9184 61.4424C77.0663 61.0937 76.9976 60.6979 76.7451 60.4307C76.7115 60.3895 74.1007 57.5559 72.1396 53.7293Z" fill="#F24040"/>
</g>
<defs>
<clipPath id="clip0_2_1211">
<rect width="77" height="62" fill="white"/>
</clipPath>
</defs>
</svg>
