<svg width="77" height="77" viewBox="0 0 77 77" fill="none" xmlns="http://www.w3.org/2000/svg">
<path d="M76.887 58.1991L73.3901 73.3577C72.8988 75.5007 71.0152 77 68.8087 77C30.8631 76.997 0 46.1384 0 8.19676C0 5.99215 1.49939 4.10634 3.64281 3.6176L18.8036 0.121192C21.0116 -0.390411 23.2676 0.755507 24.1851 2.84613L31.1819 19.1627C31.9998 21.0846 31.4482 23.3238 29.8313 24.6442L21.7335 31.1452C26.8443 41.5547 35.309 50.0183 45.7231 55.1313L52.3529 47.0407C53.6596 45.4196 55.916 44.8586 57.8382 45.691L74.1571 52.6853C76.1199 53.7177 77.3983 56.0035 76.887 58.1991Z" fill="#F24040"/>
</svg>
