<svg width="39" height="39" viewBox="0 0 39 39" fill="none" xmlns="http://www.w3.org/2000/svg">
<path d="M38.9391 29.4785L37.1681 37.1566C36.9193 38.242 35.9653 39.0015 34.8479 39.0015C15.6305 38.9999 0 23.3695 0 4.15133C0 3.03465 0.759357 2.07945 1.84488 1.83189L9.52301 0.0608976C10.6412 -0.198239 11.7838 0.38219 12.2484 1.44113L15.792 9.70578C16.2062 10.6793 15.9268 11.8134 15.1079 12.4822L11.0068 15.7751C13.5952 21.0478 17.8821 25.3347 23.1563 27.9246L26.5139 23.8265C27.1757 23.0054 28.3184 22.7213 29.2919 23.1429L37.5565 26.6856C38.5506 27.2085 39.1981 28.3664 38.9391 29.4785Z" fill="white"/>
</svg>
