<svg id="Layer_1" data-name="Layer 1" xmlns="http://www.w3.org/2000/svg" viewBox="0 0 302.2 234.55"><defs><style>.cls-1{fill:#f24040;}</style></defs><title>logo-primary</title><path class="cls-1" d="M532.59,602.66" transform="translate(-397 -501.69)"/><path class="cls-1" d="M538.25,604.69a5.43,5.43,0,0,1-5.43-5.83,71.73,71.73,0,0,1,143,0,5.43,5.43,0,0,1-5.42,5.83Z" transform="translate(-397 -501.69)"/><rect class="cls-1" x="125.38" y="116.14" width="163.21" height="19.03" rx="9.52"/><path class="cls-1" d="M663.46,734a13.27,13.27,0,0,1-3.13-.38,13.07,13.07,0,0,1-8.08-6.08l-36.72-63.13a10,10,0,1,1,17.29-10l33.1,56.91,18-11.15a10,10,0,0,1,10.52,17L670.32,732A13,13,0,0,1,663.46,734Z" transform="translate(-397 -501.69)"/><path class="cls-1" d="M506.09,736.24a10,10,0,0,1-8.31-15.55l19.31-29a10,10,0,0,1,8.32-4.45h24.26l26.79-35.6a10,10,0,1,1,16,12l-29.79,39.59a10,10,0,0,1-8,4H530.77l-16.35,24.51A10,10,0,0,1,506.09,736.24Z" transform="translate(-397 -501.69)"/><path class="cls-1" d="M494.72,638H452.1a10,10,0,0,1,0-20h42.62a10,10,0,0,1,0,20Z" transform="translate(-397 -501.69)"/><path class="cls-1" d="M501.14,604.45H466.59a10,10,0,1,1,0-20h34.55a10,10,0,1,1,0,20Z" transform="translate(-397 -501.69)"/><path class="cls-1" d="M481.93,669.34H458.31a10,10,0,0,1,0-20h23.62a10,10,0,0,1,0,20Z" transform="translate(-397 -501.69)"/><path class="cls-1" d="M419.21,637.34H407a10,10,0,0,1,0-20h12.21a10,10,0,0,1,0,20Z" transform="translate(-397 -501.69)"/><circle class="cls-1" cx="207.31" cy="11.31" r="11.31"/></svg>