<svg id="Layer_1" data-name="Layer 1" xmlns="http://www.w3.org/2000/svg" viewBox="0 0 302.2 234.55"><defs><style>.cls-1{fill:#fff;}.cls-2,.cls-3{fill:none;stroke:#fff;stroke-linecap:round;stroke-width:20px;}.cls-2{stroke-miterlimit:10;}.cls-3{stroke-linejoin:round;}</style></defs><title>logo</title><path class="cls-1" d="M532.59,602.66" transform="translate(-397 -501.69)"/><path class="cls-1" d="M538.25,604.69a5.43,5.43,0,0,1-5.43-5.83,71.73,71.73,0,0,1,143,0,5.43,5.43,0,0,1-5.42,5.83Z" transform="translate(-397 -501.69)"/><rect class="cls-1" x="125.38" y="116.14" width="163.21" height="19.03" rx="9.52"/><path class="cls-2" d="M624.17,659.34l36.72,63.13a3,3,0,0,0,4.17,1l24.14-14.93" transform="translate(-397 -501.69)"/><polyline class="cls-3" points="187.45 156 157.66 195.59 128.41 195.59 109.1 224.55"/><line class="cls-3" x1="55.1" y1="126.28" x2="97.72" y2="126.28"/><line class="cls-3" x1="69.59" y1="92.76" x2="104.14" y2="92.76"/><line class="cls-3" x1="61.31" y1="157.66" x2="84.93" y2="157.66"/><line class="cls-3" x1="10" y1="125.66" x2="22.21" y2="125.66"/><circle class="cls-1" cx="207.31" cy="11.31" r="11.31"/></svg>